<svg width="159" height="162" xmlns="http://www.w3.org/2000/svg" version="1.1">
 <g>
  <title>Layer 1</title>
  <rect x="31.712" y="38.8945" width="95.576" height="84.211" id="object-0" fill=" rgb(242, 179, 61)" fill-rule=" nonzero"/>
  <path d="m25.05969,0.64746c-12.622,2.559 -21.728,12.485 -23.935,26.091c-1.634,10.07 -1.384,103.982 0.295,111.117c2.706,11.497 9.675,19.529 19.64,22.637c4.913,1.533 11.315,1.716 60,1.716l54.5,0l5.714,-2.806c7.855,-3.857 13.3,-10.284 15.863,-18.721c1.959,-6.449 2.021,-8.719 1.688,-61.085c-0.4,-63.043 -0.192,-61.445 -9.195,-70.449c-4.254,-4.254 -6.562,-5.665 -12.023,-7.352c-6.502,-2.008 -8.695,-2.083 -57.902,-1.972c-28.13,0.063 -52.72,0.434 -54.645,0.824m45.957,49.698c-2.726,2.55 -4.957,5.385 -4.957,6.3c0,4.131 5.435,5.45 8.5,2.063c0.995,-1.1 2.43,-2 3.187,-2c1.429,0 17.254,10.632 18.548,12.461c1.235,1.747 0.912,2.424 -3.376,7.076c-4.027,4.369 -4.092,4.548 -2.345,6.478c3.096,3.422 5.604,2.42 13.276,-5.304c6.168,-6.209 7.053,-7.519 5.975,-8.851c-1.328,-1.64 -32.182,-22.86 -33.24,-22.86c-0.336,0 -2.841,2.087 -5.568,4.637m-29.757,-1.437c-2.129,2.129 -1.307,4.007 4.348,9.936c4.733,4.962 5.393,6.105 4.495,7.784c-0.58,1.083 -1.501,2.245 -2.048,2.583c-0.547,0.338 -0.995,1.629 -0.995,2.868c0,1.798 3.649,4.744 18.098,14.613c9.953,6.798 18.328,12.964 18.611,13.701c0.662,1.725 -1.479,4.312 -3.581,4.326c-0.896,0.006 -8.071,-4.339 -15.945,-9.655c-14.249,-9.62 -14.326,-9.657 -16.289,-7.694c-1.085,1.084 -1.694,2.616 -1.354,3.405c0.946,2.192 28.477,23.214 31.045,23.705c2.255,0.431 11.415,-4.956 11.415,-6.713c0,-0.465 0.698,-1.113 1.552,-1.441c1.022,-0.392 3.91,1.62 8.46,5.893c7.271,6.829 10.175,7.877 12.061,4.353c1.053,-1.967 -1.501,-4.782 -32.209,-35.5c-18.344,-18.35 -34.053,-33.364 -34.908,-33.364c-0.856,0 -2.096,0.54 -2.756,1.2m60.965,38.397c-3.296,2.309 -2.653,6.789 1.036,7.215c3.736,0.431 6.799,-1.437 6.799,-4.147c0,-4.477 -3.735,-5.94 -7.835,-3.068" fill-rule=" evenodd" fill=" rgb(34, 30, 64)" id="svg_1"/>
 </g>

</svg>